<?xml version="1.0" encoding="UTF-8" standalone="no"?><!DOCTYPE svg PUBLIC "-//W3C//DTD SVG 1.1//EN" "http://www.w3.org/Graphics/SVG/1.1/DTD/svg11.dtd"><svg width="100%" height="100%" viewBox="0 0 534 726" version="1.1" xmlns="http://www.w3.org/2000/svg" xmlns:xlink="http://www.w3.org/1999/xlink" xml:space="preserve" xmlns:serif="http://www.serif.com/" style="fill-rule:evenodd;clip-rule:evenodd;stroke-linejoin:round;stroke-miterlimit:2;"><rect id="Artboard1" x="0" y="0" width="533.28" height="726" style="fill:none;"/><clipPath id="_clip1"><rect x="0" y="0" width="533.28" height="726"/></clipPath><g clip-path="url(#_clip1)"><g><clipPath id="_clip2"><rect x="-0.972" y="0" width="534.252" height="727"/></clipPath><g clip-path="url(#_clip2)"><rect x="0.203" y="0" width="533" height="726" style="fill:url(#_Radial3);"/><g><g><path d="M-115.53,403.711c7.311,23.503 16.293,46.555 27.046,68.342c21.296,43.13 54.532,87.667 104.294,99.714c31.306,7.58 66.267,2.814 97.39,-3.71c57.794,-12.112 114.476,-29.134 173.217,-36.07c78.162,-9.228 156.534,5.335 229.51,33.713c39.34,15.299 77.92,33.468 115.879,52.029c18.842,9.207 44.957,18.093 59.163,33.984c2.739,3.058 -0.218,-1.689 -1.823,1.612c-0.44,0.912 -4.343,4.392 -5.682,5.458c-7.591,6.078 -11.815,28.565 -20.631,30.797c-51.759,13.067 -139.084,-20.587 -209.918,-4.954c-76.05,16.786 -150.442,43.025 -223.453,70.674c-66.118,25.041 -142.696,63.908 -214.631,40.755c-76.533,-24.643 -127.339,-80.936 -159.655,-153.374c10.221,-79.596 17.982,-159.52 29.294,-238.97Z" style="fill:url(#_Radial4);fill-rule:nonzero;"/><path d="M564.533,544.258l-594.226,-57.479l-7.992,82.614l594.227,57.48l7.991,-82.615Z" style="fill:none;"/><path d="M-116.547,470.624c17.096,18.934 34.744,37.469 53.476,54.452c47.234,42.847 102.511,73.692 164.866,90.463c87.462,23.52 182.176,8.319 269.233,-6.568c105.825,-18.106 211.3,-34.878 318.372,-10.104c-10.147,14.018 -19.398,29.067 -26.81,44.204c-9.564,19.519 -8.375,58.435 -14.56,65.974c-41.312,50.377 -276.34,62.284 -415.973,63.877c-65.637,0.754 -138.563,11.211 -204.009,-1.338c-66.679,-12.779 -154.973,-81.289 -165.284,-115.018c-10.128,-33.119 10.282,-124.468 20.689,-185.942Z" style="fill:url(#_Radial5);fill-rule:nonzero;"/><path d="M-133.132,431.546c26.955,22.228 53.75,44.662 82.457,64.147c68.172,46.268 145.659,71.235 228.091,78.304c106.106,9.108 215.031,-11.339 320.718,-10.781c50.48,0.261 101.96,4.608 151.604,15.478c36.678,8.029 72.929,18.9 107.493,34.038c-18.025,5.198 -35.239,13.66 -49.259,25.857c-13.329,11.601 -24.626,34.188 -33.891,41.168c-27.686,20.852 -96.688,38.42 -142.499,64.47c-22.125,12.588 -44.435,25.641 -69.279,32.059c-26.358,6.814 -54.148,6.718 -81.185,7.357c-50.178,1.195 -100.383,3.08 -150.404,5.666c-74.023,3.831 -150.159,11.124 -219.562,-16.808c-64.22,-25.853 -161.693,-72.585 -172.683,-111.443c-6.911,-24.419 9.375,-87.775 14.872,-131.419c4.126,-32.685 7.655,-65.638 13.527,-98.093Z" style="fill:url(#_Radial6);fill-rule:nonzero;"/><path d="M-126.848,450.71c17.822,18.502 36.122,36.728 55.324,53.425c49.257,42.801 106.18,73.564 170.242,89.727c90.865,22.925 189.208,5.824 279.67,-6.764c112.765,-15.696 225.389,-23.278 335.904,14.819c-12.273,11.281 -22.824,24.286 -31.643,37.97c-11.669,18.121 -11.755,57.546 -18.243,65.207c-22.435,26.493 -142.903,19.522 -211.655,38.761c-73.264,20.502 -148.45,36.457 -224.971,38.6c-72.794,2.03 -147.825,6.628 -215.47,-22.139c-61.796,-26.292 -157.089,-71.778 -167.809,-109.274c-6.217,-21.73 9.089,-78.279 15.139,-117.147c4.311,-27.733 8.42,-55.567 13.512,-83.185Z" style="fill:url(#_Radial7);fill-rule:nonzero;"/><g opacity="0.3"><path d="M-132.459,369.854c9.421,32.538 18.841,64.986 31.944,95.911c20.824,49.163 57.698,112.176 116.62,118.428c87.481,9.296 172.923,-20.877 260.258,-30.735c76.324,-8.611 152.494,-1.093 224.602,23.384c45.359,15.398 89.748,35.104 132.82,56.47c12.578,6.24 36.384,15.013 37.895,18.916c2.45,6.356 -12.721,71.377 -22.588,72.743c-32.757,4.508 -116.834,-32.921 -181.105,-26.138c-86.764,9.149 -167.913,51.342 -250.077,79.201c-68.651,23.278 -146.313,57.671 -219.106,32.485c-79.744,-27.596 -155.896,-101.983 -164.633,-162.465c-5.51,-38.168 10.487,-104.265 17.149,-156.205c5.22,-40.666 10.434,-81.384 16.221,-121.995Z" style="fill:url(#_Radial8);fill-rule:nonzero;"/></g><path d="M-103.151,311.675c-0,0 1.81,5.49 5.329,15.536c4.983,14.226 10.302,28.313 15.764,42.364c8.044,20.39 17.025,40.347 26.685,60.028c11.618,22.493 24.338,43.877 39.168,64.431c15.873,20.262 32.942,37.817 53.555,53.324c21.555,14.181 43.248,23.613 68.395,29.633c57.938,10.296 114.937,-2.526 171.251,-16.057c32.059,-7.679 64.034,-15.015 96.589,-20.255c33.249,-4.61 66.177,-6.428 99.715,-4.892c61.801,4.421 121.227,20.316 178.375,43.969c35.789,15.136 70.437,32.402 105.502,49.105c10.961,5.3 18.893,8.981 24.168,11.37c2.627,1.189 4.594,2.052 5.885,2.619c0.646,0.283 1.128,0.491 1.437,0.621c0.309,0.13 0.463,0.196 0.463,0.196c-0,-0 -0.154,-0.066 -0.473,-0.197c-0.319,-0.131 -0.791,-0.338 -1.447,-0.622c-1.301,-0.568 -3.256,-1.44 -5.894,-2.63c-5.285,-2.39 -13.224,-6.101 -24.201,-11.443c-14.211,-6.91 -28.336,-13.973 -42.536,-20.892c-20.773,-10.107 -41.758,-19.692 -63.026,-28.732c-27.092,-11.06 -54.402,-20.684 -82.562,-28.682c-31.587,-8.21 -63.22,-13.751 -95.768,-16.277c-33.472,-1.7 -66.361,-0.079 -99.58,4.333c-32.476,5.037 -64.38,12.158 -96.36,19.654c-56.183,13.423 -113.034,26.269 -170.838,16.247c-25.039,-5.888 -46.797,-15.066 -68.388,-28.979c-20.648,-15.249 -37.75,-32.566 -53.684,-52.613c-14.86,-20.345 -27.67,-41.527 -39.368,-63.817c-9.733,-19.548 -18.777,-39.371 -26.881,-59.655c-5.51,-13.986 -10.884,-28.008 -15.913,-42.178c-3.531,-10.037 -5.352,-15.508 -5.362,-15.509Z" style="fill:url(#_Linear9);fill-rule:nonzero;"/><path d="M608.714,544.514l-563.37,-54.495l-8.473,87.591l563.371,54.495l8.472,-87.591Z" style="fill:none;"/><path d="M-127.716,470.91c2.696,12.216 6.52,24.301 10.397,36.049c12.477,37.817 29.746,74.389 52.164,107.17c28.799,42.118 72.924,76.396 124.836,84.18c63.775,9.565 129.788,-17.405 186.512,-43.585c72.319,-33.372 144.831,-70.192 224.449,-80.454c82.121,-10.582 165.049,7.144 241.923,38.23c-8.779,6.324 -16.386,14.028 -23.554,21.864c-7.752,8.473 -13.64,17.719 -13.667,17.686c-22.173,-20.349 -145.925,-13.944 -218.149,4.628c-80.393,20.666 -151.936,65.757 -226.43,100.939c-63.629,30.053 -145.319,75.961 -217.346,51.272c-80.945,-27.743 -151.955,-110.835 -159.552,-174.171c-4.978,-41.603 11.348,-109.325 18.417,-163.808Z" style="fill:url(#_Radial10);fill-rule:nonzero;"/><path d="M682.757,578.801l-630.059,-60.945l-18.005,186.131l630.06,60.946l18.004,-186.132Z" style="fill:none;"/><path d="M731.08,631.109c-0,0 -0.226,-0.062 -0.633,-0.212c-0.407,-0.15 -0.999,-0.368 -1.764,-0.663c-1.54,-0.601 -3.774,-1.5 -6.767,-2.754c-9.279,-3.881 -18.455,-8.004 -27.644,-12.088c-16.362,-7.319 -32.751,-14.561 -49.263,-21.563c-23.592,-9.847 -47.49,-18.498 -71.945,-25.957c-29.269,-8.588 -58.967,-13.993 -89.357,-16.39c-16.067,-0.7 -31.819,-0.506 -47.862,0.615c-16.322,1.827 -32.113,4.61 -48.084,8.42c-16.143,4.546 -31.831,10.001 -47.561,15.794c-16.095,6.018 -32.206,12.005 -48.357,17.887c-16.243,5.793 -32.504,11.353 -48.981,16.44c-16.129,4.619 -32.243,8.656 -48.689,11.978c-31.27,5.244 -60.872,6.53 -92.292,1.903c-3.61,-0.691 -7.214,-1.351 -10.747,-2.215c-3.533,-0.864 -7.05,-1.797 -10.531,-2.777c-3.454,-1.067 -6.882,-2.182 -10.284,-3.365c-3.391,-1.192 -6.726,-2.55 -10.04,-3.915c-13.224,-5.579 -25.827,-12.595 -37.602,-20.797c-11.947,-8.299 -23.033,-17.81 -33.311,-28.088c-10.47,-10.476 -20.14,-21.74 -29.086,-33.536c-17.534,-23.969 -32.638,-48.96 -46.526,-75.199c-21.384,-42.225 -39.633,-85.704 -56.871,-129.758c-6.272,-16.28 -12.515,-32.546 -18.516,-48.92c5.95,16.389 12.14,32.68 18.361,48.965c7.396,19.302 15.096,38.472 23.014,57.563c10.329,24.609 21.441,48.801 33.473,72.631c13.845,26.375 28.904,51.522 46.391,75.658c18.464,23.697 38.208,44.244 62.374,62.174c11.798,8.274 24.425,15.353 37.684,20.995c3.323,1.377 6.666,2.755 10.065,3.958c3.411,1.194 6.848,2.33 10.31,3.408c3.49,1.001 7.017,1.935 10.558,2.82c3.552,0.876 7.163,1.557 10.783,2.249c31.554,4.71 61.271,3.465 92.684,-1.795c16.532,-3.384 32.722,-7.484 48.928,-12.166c16.554,-5.16 32.902,-10.792 49.223,-16.658c16.229,-5.955 32.417,-12.015 48.599,-18.105c15.724,-5.823 31.406,-11.319 47.542,-15.907c15.913,-3.835 31.658,-6.652 47.915,-8.536c15.969,-1.198 31.666,-1.448 47.671,-0.824c30.282,2.266 59.883,7.531 89.054,15.988c24.404,7.364 48.273,15.902 71.825,25.635c16.519,6.943 32.931,14.146 49.307,21.417c9.221,4.076 18.428,8.182 27.729,12.055c3.003,1.255 5.256,2.156 6.796,2.757c0.765,0.295 1.366,0.524 1.774,0.664c0.428,0.142 0.653,0.204 0.653,0.214Z" style="fill:url(#_Linear11);fill-rule:nonzero;"/><path d="M433.693,546.673l-488.719,-47.274l-11.361,117.452l488.719,47.273l11.361,-117.451Z" style="fill:none;"/></g></g></g></g></g><defs><radialGradient id="_Radial3" cx="0" cy="0" r="1" gradientUnits="userSpaceOnUse" gradientTransform="matrix(137.999,1065,-781.88,101.314,277.203,107)"><stop offset="0" style="stop-color:#5bd1e1;stop-opacity:1"/><stop offset="0.78" style="stop-color:#35b8ca;stop-opacity:1"/><stop offset="1" style="stop-color:#35b8ca;stop-opacity:1"/></radialGradient><radialGradient id="_Radial4" cx="0" cy="0" r="1" gradientUnits="userSpaceOnUse" gradientTransform="matrix(1122.42,186.722,-62.1256,373.449,383.704,500.606)"><stop offset="0" style="stop-color:#b6b6b6;stop-opacity:1"/><stop offset="1" style="stop-color:#b8b8b8;stop-opacity:1"/></radialGradient><radialGradient id="_Radial5" cx="0" cy="0" r="1" gradientUnits="userSpaceOnUse" gradientTransform="matrix(690.571,114.881,-40.5725,243.889,-29.5814,683.884)"><stop offset="0" style="stop-color:#787878;stop-opacity:0.4"/><stop offset="0.48" style="stop-color:#5b5b5b;stop-opacity:0.4"/><stop offset="1" style="stop-color:#404040;stop-opacity:0.4"/></radialGradient><radialGradient id="_Radial6" cx="0" cy="0" r="1" gradientUnits="userSpaceOnUse" gradientTransform="matrix(757.291,127.146,-43.3593,258.251,190.673,740.263)"><stop offset="0" style="stop-color:#797979;stop-opacity:0.4"/><stop offset="0.48" style="stop-color:#5c5c5c;stop-opacity:0.4"/><stop offset="1" style="stop-color:#404040;stop-opacity:0.4"/></radialGradient><radialGradient id="_Radial7" cx="0" cy="0" r="1" gradientUnits="userSpaceOnUse" gradientTransform="matrix(1542.39,256.587,-121.225,728.707,625.084,762.524)"><stop offset="0" style="stop-color:#787878;stop-opacity:0.4"/><stop offset="0.48" style="stop-color:#5b5b5b;stop-opacity:0.4"/><stop offset="1" style="stop-color:#404040;stop-opacity:0.4"/></radialGradient><radialGradient id="_Radial8" cx="0" cy="0" r="1" gradientUnits="userSpaceOnUse" gradientTransform="matrix(201.895,34.2637,-15.433,90.9372,232.267,855.643)"><stop offset="0" style="stop-color:#434343;stop-opacity:0.3"/><stop offset="1" style="stop-color:#434343;stop-opacity:0.15"/><stop offset="1" style="stop-color:#434343;stop-opacity:0.15"/></radialGradient><linearGradient id="_Linear9" x1="0" y1="0" x2="1" y2="0" gradientUnits="userSpaceOnUse" gradientTransform="matrix(-920.883,-219.562,219.562,-920.883,792.791,633.042)"><stop offset="0" style="stop-color:#b6b6b6;stop-opacity:1"/><stop offset="0.19" style="stop-color:#b9b9b9;stop-opacity:1"/><stop offset="0.29" style="stop-color:#c0c0c0;stop-opacity:1"/><stop offset="0.36" style="stop-color:#cdcdcd;stop-opacity:1"/><stop offset="0.42" style="stop-color:#e0e0e0;stop-opacity:1"/><stop offset="0.48" style="stop-color:#f7f7f7;stop-opacity:1"/><stop offset="0.49" style="stop-color:#fff;stop-opacity:1"/><stop offset="0.5" style="stop-color:#f8f8f8;stop-opacity:1"/><stop offset="0.56" style="stop-color:#e0e0e0;stop-opacity:1"/><stop offset="0.63" style="stop-color:#cdcdcd;stop-opacity:1"/><stop offset="0.7" style="stop-color:#c0c0c0;stop-opacity:1"/><stop offset="0.8" style="stop-color:#b9b9b9;stop-opacity:1"/><stop offset="1" style="stop-color:#b6b6b6;stop-opacity:1"/></linearGradient><radialGradient id="_Radial10" cx="0" cy="0" r="1" gradientUnits="userSpaceOnUse" gradientTransform="matrix(856.407,143.869,-69.2915,412.47,-174.197,644.192)"><stop offset="0" style="stop-color:#b6b6b6;stop-opacity:0.29"/><stop offset="0.58" style="stop-color:#e3e3e3;stop-opacity:0.29"/><stop offset="1" style="stop-color:#fff;stop-opacity:0.29"/></radialGradient><linearGradient id="_Linear11" x1="0" y1="0" x2="1" y2="0" gradientUnits="userSpaceOnUse" gradientTransform="matrix(-924.817,-220.5,220.5,-924.817,730.694,632.722)"><stop offset="0" style="stop-color:#b6b6b6;stop-opacity:1"/><stop offset="0.19" style="stop-color:#b9b9b9;stop-opacity:1"/><stop offset="0.29" style="stop-color:#c0c0c0;stop-opacity:1"/><stop offset="0.36" style="stop-color:#cdcdcd;stop-opacity:1"/><stop offset="0.42" style="stop-color:#e0e0e0;stop-opacity:1"/><stop offset="0.48" style="stop-color:#f7f7f7;stop-opacity:1"/><stop offset="0.49" style="stop-color:#fff;stop-opacity:1"/><stop offset="0.5" style="stop-color:#f8f8f8;stop-opacity:1"/><stop offset="0.56" style="stop-color:#e0e0e0;stop-opacity:1"/><stop offset="0.63" style="stop-color:#cdcdcd;stop-opacity:1"/><stop offset="0.7" style="stop-color:#c0c0c0;stop-opacity:1"/><stop offset="0.8" style="stop-color:#b9b9b9;stop-opacity:1"/><stop offset="1" style="stop-color:#b6b6b6;stop-opacity:1"/></linearGradient></defs></svg>