<svg width="11" height="10" viewBox="0 0 11 10" fill="none" xmlns="http://www.w3.org/2000/svg">
  <path
    d="M9.36649 4.50006H0.478224C0.351391 4.50006 0.229753 4.55274 0.140069 4.64649C0.0503842 4.74025 0 4.86741 0 5C0 5.13259 0.0503842 5.25975 0.140069 5.35351C0.229753 5.44727 0.351391 5.49994 0.478224 5.49994H9.36649L5.87833 9.14548C5.78853 9.23935 5.73808 9.36667 5.73808 9.49943C5.73808 9.63219 5.78853 9.75951 5.87833 9.85339C5.96812 9.94726 6.08992 10 6.21691 10C6.3439 10 6.46569 9.94726 6.55549 9.85339L10.8595 5.35396C10.904 5.30752 10.9394 5.25235 10.9635 5.19161C10.9876 5.13087 11 5.06576 11 5C11 4.93424 10.9876 4.86913 10.9635 4.80839C10.9394 4.74765 10.904 4.69248 10.8595 4.64604L6.55549 0.146613C6.46569 0.0527382 6.3439 0 6.21691 0C6.08992 0 5.96812 0.0527382 5.87833 0.146613C5.78853 0.240488 5.73808 0.367809 5.73808 0.500568C5.73808 0.633327 5.78853 0.760649 5.87833 0.854524L9.36649 4.50006Z"
    fill="white"/>
</svg>
